<svg width="26" height="30" viewBox="0 0 26 30" fill="none" xmlns="http://www.w3.org/2000/svg">
<g clip-path="url(#clip0_201_5737)">
<path d="M23.1726 0H2.78071C1.29766 0 0 1.29766 0 2.78071V26.8802C0 28.3632 1.29766 29.6609 2.78071 29.6609H23.1726C24.6556 29.6609 25.9533 28.3632 25.9533 26.8802V2.78071C25.9533 1.29766 24.6556 0 23.1726 0ZM7.41522 25.2118C7.41522 25.5825 7.04446 25.9533 6.6737 25.9533H4.44913C4.07837 25.9533 3.70761 25.5825 3.70761 25.2118V22.9872C3.70761 22.6164 4.07837 22.2457 4.44913 22.2457H6.6737C7.04446 22.2457 7.41522 22.6164 7.41522 22.9872V25.2118ZM7.41522 17.7965C7.41522 18.1673 7.04446 18.5381 6.6737 18.5381H4.44913C4.07837 18.5381 3.70761 18.1673 3.70761 17.7965V15.572C3.70761 15.2012 4.07837 14.8304 4.44913 14.8304H6.6737C7.04446 14.8304 7.41522 15.2012 7.41522 15.572V17.7965ZM14.8304 25.2118C14.8304 25.5825 14.4597 25.9533 14.0889 25.9533H11.8644C11.4936 25.9533 11.1228 25.5825 11.1228 25.2118V22.9872C11.1228 22.6164 11.4936 22.2457 11.8644 22.2457H14.0889C14.4597 22.2457 14.8304 22.6164 14.8304 22.9872V25.2118ZM14.8304 17.7965C14.8304 18.1673 14.4597 18.5381 14.0889 18.5381H11.8644C11.4936 18.5381 11.1228 18.1673 11.1228 17.7965V15.572C11.1228 15.2012 11.4936 14.8304 11.8644 14.8304H14.0889C14.4597 14.8304 14.8304 15.2012 14.8304 15.572V17.7965ZM22.2457 25.2118C22.2457 25.5825 21.8749 25.9533 21.5041 25.9533H19.2796C18.9088 25.9533 18.5381 25.5825 18.5381 25.2118V15.572C18.5381 15.2012 18.9088 14.8304 19.2796 14.8304H21.5041C21.8749 14.8304 22.2457 15.2012 22.2457 15.572V25.2118ZM22.2457 10.3813C22.2457 10.7521 21.8749 11.1228 21.5041 11.1228H4.44913C4.07837 11.1228 3.70761 10.7521 3.70761 10.3813V4.44913C3.70761 4.07837 4.07837 3.70761 4.44913 3.70761H21.5041C21.8749 3.70761 22.2457 4.07837 22.2457 4.44913V10.3813Z" fill="black"/>
</g>
<defs>
<clipPath id="clip0_201_5737">
<rect width="25.9533" height="29.6609" fill="white"/>
</clipPath>
</defs>
</svg>
