<svg width="30" height="30" viewBox="0 0 30 30" fill="none" xmlns="http://www.w3.org/2000/svg">
<g clip-path="url(#clip0_201_4465)">
<path d="M28.7917 15.8153L19.0592 25.5478C18.1902 26.4167 16.684 25.8084 16.684 24.5629V19.0015H8.80533C8.03484 19.0015 7.41498 18.3816 7.41498 17.6111V12.0497C7.41498 11.2792 8.03484 10.6594 8.80533 10.6594H16.684V5.09796C16.684 3.85823 18.1844 3.24416 19.0592 4.11313L28.7917 13.8456C29.3304 14.3902 29.3304 15.2707 28.7917 15.8153ZM11.1226 25.2581V22.9408C11.1226 22.5585 10.8098 22.2457 10.4274 22.2457H5.56117C4.53579 22.2457 3.70737 21.4172 3.70737 20.3919V9.26902C3.70737 8.24364 4.53579 7.41522 5.56117 7.41522H10.4274C10.8098 7.41522 11.1226 7.10239 11.1226 6.72004V4.40278C11.1226 4.02044 10.8098 3.70761 10.4274 3.70761H5.56117C2.49081 3.70761 -0.000244141 6.19866 -0.000244141 9.26902V20.3919C-0.000244141 23.4622 2.49081 25.9533 5.56117 25.9533H10.4274C10.8098 25.9533 11.1226 25.6404 11.1226 25.2581Z" fill="black"/>
</g>
<defs>
<clipPath id="clip0_201_4465">
<rect width="29.6609" height="29.6609" fill="white"/>
</clipPath>
</defs>
</svg>
