<svg width="37" height="34" viewBox="0 0 37 34" fill="none" xmlns="http://www.w3.org/2000/svg">
<path d="M28.9248 19.0996C28.9248 19.7555 28.4682 20.4248 27.75 20.4248C27.0318 20.4248 26.5752 19.7555 26.5752 19.0996V11.9004C26.5752 11.2445 27.0318 10.5752 27.75 10.5752C28.4682 10.5752 28.9248 11.2445 28.9248 11.9004V19.0996Z" fill="black"/>
<path d="M28.9248 19.0996C28.9248 19.7555 28.4682 20.4248 27.75 20.4248C27.0318 20.4248 26.5752 19.7555 26.5752 19.0996V11.9004C26.5752 11.2445 27.0318 10.5752 27.75 10.5752C28.4682 10.5752 28.9248 11.2445 28.9248 11.9004V19.0996Z" stroke="black" stroke-width="0.85"/>
<path d="M28.9248 19.0996C28.9248 19.7555 28.4682 20.4248 27.75 20.4248C27.0318 20.4248 26.5752 19.7555 26.5752 19.0996V11.9004C26.5752 11.2445 27.0318 10.5752 27.75 10.5752C28.4682 10.5752 28.9248 11.2445 28.9248 11.9004V19.0996Z" stroke="black" stroke-width="0.85"/>
<path d="M23.9004 16.9004C23.2538 16.9004 22.5996 16.4503 22.5996 15.75C22.5996 15.0497 23.2538 14.5996 23.9004 14.5996H31.0996C31.7462 14.5996 32.4004 15.0497 32.4004 15.75C32.4004 16.4503 31.7462 16.9004 31.0996 16.9004H23.9004Z" fill="black"/>
<path d="M23.9004 16.9004C23.2538 16.9004 22.5996 16.4503 22.5996 15.75C22.5996 15.0497 23.2538 14.5996 23.9004 14.5996H31.0996C31.7462 14.5996 32.4004 15.0497 32.4004 15.75C32.4004 16.4503 31.7462 16.9004 31.0996 16.9004H23.9004Z" stroke="black" stroke-width="0.8"/>
<path d="M23.9004 16.9004C23.2538 16.9004 22.5996 16.4503 22.5996 15.75C22.5996 15.0497 23.2538 14.5996 23.9004 14.5996H31.0996C31.7462 14.5996 32.4004 15.0497 32.4004 15.75C32.4004 16.4503 31.7462 16.9004 31.0996 16.9004H23.9004Z" stroke="black" stroke-width="0.8"/>
<path d="M14.9766 17.8304C19.0724 17.8304 22.3919 14.511 22.3919 10.4152C22.3919 6.31947 19.0724 3 14.9766 3C10.8809 3 7.56142 6.31947 7.56142 10.4152C7.56142 14.511 10.8809 17.8304 14.9766 17.8304ZM20.5265 19.719L17.7573 30.8071L15.9035 22.9284L17.7573 19.6842H12.1959L14.0497 22.9284L12.1959 30.8071L9.42681 19.719C5.2963 19.916 2 23.2934 2 27.4702V29.8802C2 31.4154 3.24553 32.6609 4.78071 32.6609H25.1726C26.7078 32.6609 27.9533 31.4154 27.9533 29.8802V27.4702C27.9533 23.2934 24.657 19.916 20.5265 19.719Z" fill="black"/>
</svg>
