<svg width="38" height="30" viewBox="0 0 38 30" fill="none" xmlns="http://www.w3.org/2000/svg">
<g clip-path="url(#clip0_201_4519)">
<path d="M2.78083 3.43323e-05C1.24739 3.43323e-05 0.00012207 1.2473 0.00012207 2.78074V6.48835C0.00012207 7.00047 0.414911 7.41526 0.927025 7.41526H5.56154V2.78074C5.56154 1.2473 4.31428 3.43323e-05 2.78083 3.43323e-05ZM14.8306 23.9008V20.3919H31.5148V5.56145C31.5148 2.49456 29.0203 3.43323e-05 25.9534 3.43323e-05H6.46469C7.05269 0.776895 7.41534 1.73334 7.41534 2.78074V24.0995C7.41534 26.3513 9.42267 28.1344 11.7457 27.7561C13.5688 27.4595 14.8306 25.7482 14.8306 23.9008ZM16.6844 22.2457V24.0995C16.6844 27.1658 14.1898 29.6609 11.123 29.6609H30.5879C34.1716 29.6609 37.0762 26.7562 37.0762 23.1726C37.0762 22.6605 36.6614 22.2457 36.1493 22.2457H16.6844Z" fill="black"/>
<path d="M16.6658 13.5319V14.4657C16.6658 14.7218 16.4584 14.9292 16.2023 14.9292H15.2754C15.0194 14.9292 14.812 14.7218 14.812 14.4657V13.522C14.1579 13.4884 13.5218 13.2602 12.9947 12.8645C12.7687 12.6948 12.7571 12.3564 12.9616 12.1612L13.6423 11.5118C13.8028 11.3589 14.0415 11.3519 14.2292 11.4695C14.4534 11.6097 14.7077 11.685 14.9719 11.685H16.6003C16.9769 11.685 17.2839 11.3421 17.2839 10.9209C17.2839 10.5762 17.0748 10.2726 16.7758 10.1834L14.1689 9.40135C13.092 9.07809 12.3395 8.0446 12.3395 6.88771C12.3395 5.46723 13.4431 4.31323 14.8114 4.27674V3.34288C14.8114 3.08683 15.0188 2.87943 15.2748 2.87943H16.2017C16.4578 2.87943 16.6652 3.08683 16.6652 3.34288V4.28659C17.3192 4.32019 17.9553 4.54786 18.4825 4.94411C18.7084 5.11385 18.72 5.45217 18.5155 5.6474L17.8348 6.29681C17.6744 6.44975 17.4357 6.4567 17.248 6.3391C17.0238 6.19832 16.7695 6.12359 16.5053 6.12359H14.8769C14.5003 6.12359 14.1933 6.46655 14.1933 6.88771C14.1933 7.2324 14.4024 7.53596 14.7013 7.62517L17.3082 8.40725C18.3852 8.73051 19.1377 9.764 19.1377 10.9209C19.1377 12.342 18.0341 13.4954 16.6658 13.5319Z" fill="white"/>
</g>
<defs>
<clipPath id="clip0_201_4519">
<rect width="37.0761" height="29.6609" fill="white"/>
</clipPath>
</defs>
</svg>
